PathFileType	4	(X/Y/Z)	C:\Users\Biomechanik\SynologyDrive\AlexP\Athlete_03\Athlete_3_25_03_31\Squat_35kg_01\marker_experimental.trc
DataRate	CameraRate	NumFrames	NumMarkers	Units	OrigDataRate	OrigDataStartFrame	OrigNumFrames
200.000000	200.000000	4	55	mm	200.000000	403	646
Frame#	Time	BL			BR			GLAB			RFHD			LFHD			C7			T6			SPINMOL			SPINM2			SPINM3			T12			BELTOL			BELT2			BELT3			SACROL			SACR2			SACR3			LTHOL			LTH2			LTH3			LSHAOL			LSHA2			LSHA3			LHEE			LTOE			LM5			RTHOL			RTH2			RTH3			RSHAOL			RSHA2			RSHA3			RHEE			RTOE			RM5			STRN			XIPH			LACR			LUAOL			LUA2			LUA3			LLAOL			LLA2			LLA3			LWRR			LWRU			RACR			RUAOL			RUA2			RUA3			RLAOL			RLA2			RLA3			RWRR			RWRU			
		X1	Y1	Z1	X2	Y2	Z2	X3	Y3	Z3	X4	Y4	Z4	X5	Y5	Z5	X6	Y6	Z6	X7	Y7	Z7	X8	Y8	Z8	X9	Y9	Z9	X10	Y10	Z10	X11	Y11	Z11	X12	Y12	Z12	X13	Y13	Z13	X14	Y14	Z14	X15	Y15	Z15	X16	Y16	Z16	X17	Y17	Z17	X18	Y18	Z18	X19	Y19	Z19	X20	Y20	Z20	X21	Y21	Z21	X22	Y22	Z22	X23	Y23	Z23	X24	Y24	Z24	X25	Y25	Z25	X26	Y26	Z26	X27	Y27	Z27	X28	Y28	Z28	X29	Y29	Z29	X30	Y30	Z30	X31	Y31	Z31	X32	Y32	Z32	X33	Y33	Z33	X34	Y34	Z34	X35	Y35	Z35	X36	Y36	Z36	X37	Y37	Z37	X38	Y38	Z38	X39	Y39	Z39	X40	Y40	Z40	X41	Y41	Z41	X42	Y42	Z42	X43	Y43	Z43	X44	Y44	Z44	X45	Y45	Z45	X46	Y46	Z46	X47	Y47	Z47	X48	Y48	Z48	X49	Y49	Z49	X50	Y50	Z50	X51	Y51	Z51	X52	Y52	Z52	X53	Y53	Z53	X54	Y54	Z54	X55	Y55	Z55	

404	2.015	243.1720581054688	802.5131835937501	-2214.641845703125	228.4018859863281	820.720458984375	-194.0128021240234	520.4945678710938	982.5880737304689	-1170.3857421875	466.9888610839844	1005.876281738281	-1108.916870117188	479.5698852539062	1005.633666992188	-1244.992309570312	287.0898132324219	871.7165527343751	-1182.917114257812	162.1875610351562	763.1147460937501	-1194.364501953125	142.0058135986328	744.1325073242189	-1213.446533203125	131.1086273193359	737.9604492187501	-1164.703247070312	101.5626983642578	692.6383666992189	-1203.443481445312	70.98258972167969	653.8647460937501	-1204.363037109375	36.86250305175781	646.9328002929689	-1219.272216796875	32.96064758300781	643.2172851562501	-1169.097778320312	-3.51659107208252	597.3012695312501	-1201.116455078125	-67.58647155761719	471.7017211914063	-1229.943603515625	-66.393798828125	471.6730651855469	-1178.629272460938	-75.0430908203125	411.0153503417969	-1203.71044921875	139.0777130126953	372.3267517089845	-1495.880615234375	188.5287017822266	319.0806884765626	-1525.252685546875	190.7978363037109	368.6567382812501	-1528.50732421875	231.7125244140625	291.971160888672	-1613.316650390625	166.5806427001953	256.0865783691407	-1584.069458007812	209.5684967041016	235.6058807373048	-1600.82861328125	81.60557556152344	71.40096282958993	-1482.683349609375	286.0346374511719	46.54504776000986	-1540.944702148438	217.3536529541016	27.21010208129893	-1631.387451171875	110.3665771484375	364.2240905761719	-897.1815185546875	150.6326751708984	424.0879211425782	-862.3716430664062	159.576171875	375.1815185546876	-860.413330078125	198.6138610839844	309.1044921875001	-774.6961059570312	197.4984741210938	230.1935424804688	-774.8582153320312	164.9646453857422	261.1747436523438	-796.1006469726562	61.15892791748047	67.46406555175787	-920.3728637695312	252.5474243164062	46.09060668945317	-838.18212890625	170.7830200195312	38.11427307128911	-757.9207763671875	398.1107788085938	709.3576660156251	-1185.590454101562	353.443359375	567.7897338867189	-1181.4453125	320.3835754394531	828.3126220703126	-1346.079956054688	193.7781219482422	738.8926391601564	-1440.800903320312	140.029052734375	702.6992797851564	-1430.84033203125	166.9719848632812	688.1221313476564	-1471.603881835938	129.8192291259766	625.2919921875001	-1542.465576171875	198.5246734619141	613.2110595703126	-1579.093872070312	175.2820587158203	657.1612548828126	-1567.35595703125	239.9331970214844	731.8063964843751	-1602.291870117188	260.0224609375	751.0007934570314	-1527.501220703125	324.3316650390625	823.7413330078126	-1030.08203125	198.7635345458984	736.7634887695314	-943.6163330078125	163.9374389648438	688.7730102539062	-914.3646240234375	145.3927001953125	702.6535034179689	-961.3324584960938	138.8879241943359	619.1773681640625	-827.9268798828125	154.9402008056641	696.6295166015625	-814.8765258789062	182.1890563964844	655.848876953125	-801.798583984375	227.3738403320312	734.8040771484375	-777.6598510742188	262.601806640625	761.3120727539062	-845.1242065429688	
405	2.02	243.0676727294922	801.8929443359376	-2214.608154296875	228.558837890625	819.4400634765625	-193.9729003906249	520.434814453125	981.6506958007814	-1170.35009765625	466.9348449707031	1004.908935546875	-1108.873413085938	479.4922790527344	1004.71240234375	-1244.94384765625	287.0711059570312	870.7855834960939	-1182.879150390625	162.1327514648438	762.2695922851564	-1194.35888671875	141.9489288330078	743.2742309570314	-1213.447998046875	131.0624847412109	737.1041259765626	-1164.714965820312	101.4918670654297	691.7952270507814	-1203.427734375	70.85536956787109	653.0510253906251	-1204.380615234375	36.68820571899414	646.1876220703126	-1219.288818359375	32.80204772949219	642.4631347656251	-1169.114624023438	-3.663339376449585	596.5378417968751	-1201.117309570312	-67.70313262939453	470.7447509765626	-1229.94970703125	-66.50714111328125	470.7254333496094	-1178.635864257812	-75.08300018310547	410.0361328125001	-1203.701782226562	139.1329040527344	371.8305969238282	-1495.834838867188	188.6806182861328	318.7205505371095	-1525.273315429688	190.8581848144531	368.3051757812501	-1528.478271484375	231.7526702880859	291.9514770507814	-1613.270385742188	166.6097412109375	256.0794067382814	-1584.036010742188	209.5918426513672	235.590072631836	-1600.802001953125	81.60417938232422	71.38299560546884	-1482.66943359375	286.0360107421875	46.54095840454111	-1540.928955078125	217.3534240722656	27.22098541259776	-1631.376586914062	110.4021987915039	363.7063598632813	-897.2314453125	150.5427093505859	423.7067871093751	-862.5030517578125	159.5809631347656	374.8178100585938	-860.4605712890625	198.6327056884766	309.1058654785157	-774.760986328125	197.5263519287109	230.1941223144532	-774.9144897460938	164.9897308349609	261.1686096191407	-796.162353515625	61.16020584106445	67.45481872558599	-920.3959350585938	252.5455474853516	46.08467483520513	-838.2122802734375	170.7938537597656	38.12654113769536	-757.9447631835938	398.073974609375	708.4029541015626	-1185.60791015625	353.387451171875	566.9167480468751	-1181.474487304688	320.3911437988281	827.3823242187501	-1346.080078125	193.7528686523438	738.0465698242189	-1440.820068359375	139.9808807373047	701.8731079101564	-1430.863525390625	166.9080657958984	687.3007202148439	-1471.643188476562	129.7234039306641	624.5027465820314	-1542.497192382812	198.4251556396484	612.4063720703126	-1579.10693359375	175.1238250732422	656.3889770507814	-1567.360107421875	239.8677062988281	731.0057983398439	-1602.269409179688	259.9737854003906	750.1597290039064	-1527.484741210938	324.3550109863281	822.7276611328126	-1030.058959960938	198.7750244140625	735.7747192382814	-943.564453125	163.9237976074219	687.7914428710938	-914.3302612304688	145.383544921875	701.7009277343751	-961.2866821289062	138.8817749023438	618.1581420898438	-827.9281005859375	154.9088287353516	695.6062622070312	-814.865966796875	182.2010498046875	654.8060302734375	-801.7996215820312	227.4199676513672	733.7402954101562	-777.6476440429688	262.6369323730469	760.25927734375	-845.1136474609375	
406	2.025	242.9541625976562	801.2999877929689	-2214.576416015625	228.7165985107422	818.1808471679688	-193.9351043701171	520.3740234375	980.7405395507814	-1170.310913085938	466.8792724609375	1003.968994140625	-1108.826782226562	479.4141235351562	1003.817626953125	-1244.892211914062	287.050537109375	869.8802490234376	-1182.839599609375	162.0769805908203	761.4497070312501	-1194.353759765625	141.8919677734375	742.4409179687501	-1213.44970703125	131.01708984375	736.2726440429689	-1164.723754882812	101.4204940795898	690.9768676757814	-1203.411987304688	70.73162078857422	652.2611694335939	-1204.394409179688	36.51764678955078	645.4659423828126	-1219.304931640625	32.64779281616211	641.7322998046876	-1169.129028320312	-3.807357311248779	595.7985839843751	-1201.118774414062	-67.82131195068359	469.8251342773438	-1229.953735351562	-66.62296295166016	469.8151245117188	-1178.640380859375	-75.12796783447266	409.0946655273438	-1203.690551757812	139.1690216064453	371.362518310547	-1495.787475585938	188.8104248046875	318.375946044922	-1525.293701171875	190.8981781005859	367.9750976562501	-1528.449584960938	231.7817230224609	291.9350891113282	-1613.226440429688	166.6298980712891	256.0732421875001	-1584.00439453125	209.6071014404297	235.5767059326173	-1600.777954101562	81.60054779052734	71.36434173583993	-1482.65771484375	286.0367126464844	46.53777313232431	-1540.914428710938	217.3525695800781	27.23134231567393	-1631.365844726562	110.4204330444336	363.2063903808594	-897.2783813476562	150.4401397705078	423.3402709960938	-862.6270751953125	159.5704498291016	374.4679870605469	-860.503662109375	198.6374053955078	309.1099243164063	-774.8199462890625	197.5432891845703	230.1988067626954	-774.9649658203125	165.0031280517578	261.1644897460938	-796.218994140625	61.16061782836914	67.44409942626959	-920.4173583984375	252.5434112548828	46.07962799072271	-838.2401123046875	170.8033599853516	38.13761520385747	-757.9674682617188	398.0361633300781	707.4752807617189	-1185.6240234375	353.3310546875	566.0708007812501	-1181.5029296875	320.3959655761719	826.4797973632814	-1346.078125	193.7286071777344	737.2233276367189	-1440.838012695312	139.9351043701172	701.0671997070314	-1430.885498046875	166.8470153808594	686.5013427734376	-1471.680908203125	129.6337585449219	623.7313232421876	-1542.528198242188	198.3294525146484	611.6278076171876	-1579.1181640625	174.9492492675781	655.6453857421876	-1567.360961914062	239.8009338378906	730.2313232421876	-1602.246215820312	259.9232788085938	749.3458251953126	-1527.46826171875	324.376220703125	821.7414550781251	-1030.033935546875	198.7871551513672	734.8072509765626	-943.5103759765625	163.9106292724609	686.8305053710938	-914.2937622070312	145.3748626708984	700.7692260742189	-961.23974609375	138.8791046142578	617.158935546875	-827.9286499023438	154.8733673095703	694.6035766601562	-814.857177734375	182.2158050537109	653.7846069335938	-801.801513671875	227.4675750732422	732.6992797851562	-777.6362915039062	262.6720581054688	759.2293090820312	-845.1047973632812	
407	2.03	242.8313293457031	800.7351074218751	-2214.546142578125	228.87451171875	816.9443969726562	-193.8992462158203	520.3118896484375	979.8590698242189	-1170.268310546875	466.8220825195312	1003.057739257813	-1108.77685546875	479.3347473144531	1002.950439453125	-1244.837768554688	287.0282897949219	869.0009765625001	-1182.797973632812	162.0205078125	760.6552734375001	-1194.348754882812	141.8351898193359	741.6329956054689	-1213.451293945312	130.9724731445312	735.4663085937501	-1164.728637695312	101.3488235473633	690.1837158203126	-1203.396362304688	70.61130523681641	651.4953613281251	-1204.40478515625	36.35071182250977	644.7673950195314	-1219.320922851562	32.49804306030273	641.0246582031251	-1169.141235351562	-3.949430227279663	595.0833129882814	-1201.122314453125	-67.94007110595703	468.9416809082032	-1229.955932617188	-66.739990234375	468.9409790039063	-1178.6435546875	-75.17729949951172	408.1905517578126	-1203.676879882812	139.1874084472656	370.9215087890626	-1495.7392578125	188.9188232421875	318.0471191406251	-1525.315185546875	190.9189453125	367.6654357910157	-1528.421508789062	231.8005065917969	291.9214782714845	-1613.185302734375	166.64208984375	256.0677185058595	-1583.974975585938	209.6150360107422	235.5653228759766	-1600.756591796875	81.59496307373047	71.34516143798837	-1482.648193359375	286.0368957519531	46.53547286987314	-1540.900634765625	217.3512268066406	27.24113655090342	-1631.35546875	110.4224853515625	362.7243957519532	-897.32177734375	150.3264465332031	422.9885253906251	-862.742919921875	159.5458221435547	374.1323547363282	-860.5418701171875	198.6287841796875	309.1160583496094	-774.8721313476562	197.5500335693359	230.2069702148438	-775.0093383789062	165.0055694580078	261.1618957519532	-796.2698364257812	61.16028594970703	67.43205261230474	-920.4370727539062	252.5409851074219	46.07546997070317	-838.265625	170.8115234375	38.14750671386724	-757.9889526367188	397.9974365234375	706.5749511718751	-1185.638549804688	353.2738952636719	565.2493896484376	-1181.531616210938	320.3981018066406	825.6060180664064	-1346.073852539062	193.705810546875	736.4231567382814	-1440.85546875	139.8924407958984	700.2816772460939	-1430.906860351562	166.7899627685547	685.7238769531251	-1471.717163085938	129.5518951416016	622.9779052734376	-1542.558959960938	198.2393493652344	610.8754272460939	-1579.1279296875	174.7581787109375	654.9311523437501	-1567.358276367188	239.7333679199219	729.4838867187501	-1602.22216796875	259.8714294433594	748.5600585937501	-1527.451904296875	324.3958435058594	820.7837524414064	-1030.006225585938	198.8000793457031	733.8623657226564	-943.453857421875	163.8980102539062	685.89111328125	-914.2545776367188	145.3672485351562	699.8590698242189	-961.1917114257812	138.8801574707031	616.1807250976562	-827.9286499023438	154.8370971679688	693.62255859375	-814.8490600585938	182.233642578125	652.78564453125	-801.8042602539062	227.5167694091797	731.6821899414062	-777.6256713867188	262.707275390625	758.2229614257812	-845.0974731445312	
